<svg xmlns="http://www.w3.org/2000/svg" width="28.773" height="34.532" viewBox="0 0 28.773 34.532"><defs><style>.a,.b{fill:#818386;}.b{mix-blend-mode:multiply;isolation:isolate;}.c{fill:#fff;}</style></defs><g transform="translate(-7022.792 -1001.995)"><path class="a" d="M7037.177,1001.995a14.38,14.38,0,0,0-8.728,25.813v8.719H7045.9v-8.719a14.379,14.379,0,0,0-8.728-25.813Zm6.792,32.593h-13.583v-5.525a14.371,14.371,0,0,0,13.583,0Zm1.936-9.347a12.181,12.181,0,0,1-2.516,1.91,12.446,12.446,0,0,1-18.659-10.769,12.448,12.448,0,1,1,21.175,8.859Z"/><path class="b" d="M7037.177,1018.669a.635.635,0,0,0,.49-.237l7.842-9.509a11.159,11.159,0,0,0-16.661,0l7.838,9.509A.64.64,0,0,0,7037.177,1018.669Z"/><path class="a" d="M7038.106,1017.818a.929.929,0,1,1-.929-.931A.929.929,0,0,1,7038.106,1017.818Z"/><rect class="c" width="0.961" height="10.104" transform="translate(7036.698 1009.239)"/><path class="c" d="M7037.176,1009.887h-1.352l.677-1.173.675-1.171.679,1.171.675,1.173Z"/></g></svg>