<?xml version="1.0" encoding="utf-8"?>
<!-- Generator: Adobe Illustrator 18.1.1, SVG Export Plug-In . SVG Version: 6.00 Build 0)  -->
<svg version="1.1" id="Layer_1" xmlns="http://www.w3.org/2000/svg" xmlns:xlink="http://www.w3.org/1999/xlink" x="0px" y="0px"
	 viewBox="0 0 25 25" enable-background="new 0 0 25 25" xml:space="preserve">
<g>
	<path fill="#FFFFFF" d="M14.2,11.6c1.1-0.3,1.9-1.3,1.9-2.5c0-1.5-1.2-2.7-2.7-2.7c-1.5,0-2.7,1.2-2.7,2.7c0,1.2,0.8,2.2,1.9,2.5
		c-1.8,0.2-3.2,1.7-3.2,3.5v1.9c0,0.5,0.4,0.8,0.8,0.8h6.4c0.5,0,0.8-0.4,0.8-0.8v-1.9C17.4,13.3,16,11.8,14.2,11.6z M13.4,8.1
		c0.6,0,1,0.5,1,1c0,0.6-0.5,1-1,1c-0.6,0-1-0.5-1-1C12.4,8.5,12.8,8.1,13.4,8.1z M11,16.3v-1.1c0-1.1,0.8-1.9,1.9-1.9h0.9
		c1.1,0,1.9,0.8,1.9,1.9v1.1H11z"/>
	<path fill="#FFFFFF" d="M20,2.2H6.7c-1.1,0-1.9,0.9-1.9,1.9v0.6h-1C3.3,4.8,3,5.1,3,5.6s0.4,0.8,0.8,0.8h1v1.6h-1
		C3.3,8.1,3,8.4,3,8.9c0,0.5,0.4,0.8,0.8,0.8h1v1.6h-1c-0.5,0-0.8,0.4-0.8,0.8S3.3,13,3.8,13h1v1.6h-1C3.3,14.6,3,15,3,15.5
		s0.4,0.8,0.8,0.8h1v1.6h-1c-0.5,0-0.8,0.4-0.8,0.8s0.4,0.8,0.8,0.8h1v0.6c0,1.1,0.9,1.9,1.9,1.9H20c1.1,0,1.9-0.9,1.9-1.9v-16
		C22,3.1,21.1,2.2,20,2.2z M20.3,20.2c0,0.1-0.1,0.3-0.3,0.3H6.7c-0.1,0-0.3-0.1-0.3-0.3v-16c0-0.1,0.1-0.3,0.3-0.3H20
		c0.1,0,0.3,0.1,0.3,0.3V20.2z"/>
</g>
</svg>
